<svg xmlns="http://www.w3.org/2000/svg" viewBox="0 0 64 64" width="64" height="64" fill="none">
  <rect width="64" height="64" rx="16" fill="#0F172A"/>
  <rect x="2" y="2" width="60" height="60" rx="14" stroke="#1D2D4A"/>
  <path d="M16 45V19H30c8 0 12 4 12 9 0 3-2 6-5 7 4 1 7 4 7 9 0 7-5 11-13 11H16zm9-16h6c2 0 3-1 3-3 0-2-1-3-3-3h-6v6zm0 12h7c3 0 4-1 4-3 0-3-1-4-4-4h-7v7z" fill="url(#snr)"/>
  <path d="M47 18l2 5 5 2-5 2-2 5-2-5-5-2 5-2 2-5z" fill="url(#snr)"/>
  <defs>
    <linearGradient id="snr" x1="13" y1="14" x2="54" y2="51" gradientUnits="userSpaceOnUse">
      <stop stop-color="#7CD0FF"/>
      <stop offset="0.52" stop-color="#38B4FF"/>
      <stop offset="1" stop-color="#537BFF"/>
    </linearGradient>
  </defs>
</svg>
